# xmcd
# 
# Track frame offsets:
#     150
#     12125
#     31775
#     48435
#     60650
#     77730
#     91022
#     106257
#     121342
#     138167
#     154255
#     172152
#     190845
#     210537
#     225765
#     243015
#     262677
#     278847
#     296687
# 
# Disc length: 4202
# 
# Revision: 1
# Processed by: cddbd v1.5.2PL0 Copyright (c) Steve Scherf et al.
# Submitted via: fre:ac v1.0.27
# 
DISCID=eb106813
DTITLE=Συλλογικός δίσκος - Μεσημέρι στου Ψυρρή 1
DYEAR=1999
DGENRE=Ποικίλη
TTITLE0=Μαρινέλλα - Απόψε φίλα με
TTITLE1=Λιδάκης Μανώλης - Άστρα μη με μαλώνετε
TTITLE2=Λεγάκη Ελένη - Μη σταματάς
TTITLE3=Μακεδόνας Κώστας - Πάρε με
TTITLE4=Κότσιρας Γιάννης - Χάντρα θαλασσιά
TTITLE5=Τσέρτος Μπάμπης - Φυσάει ο μπάτης
TTITLE6=Ανδρεάτος Γεράσιμος - Παράλογο
TTITLE7=Τσαλιγοπούλου Ελένη - Άγιο τσιπουράκι
TTITLE8=Ρασούλης Μανώλης - Πότε Βούδας, πότε Κούδας
TTITLE9=Μπάσης Δημήτρης - Ψίθυροι καρδιάς
TTITLE10=Δουρδουμπάκης Πέτρος-Καρύππης Βαγγ.-Απέργης Αντ. - Ό,τι άναψε, θα σβήσει
TTITLE11=Άνευ ερμηνευτού - Ταξείδι στον Βόσπορο [ορχηστρικό, Χρήστος Νικολόπουλος]
TTITLE12=Βαρδής Αντώνης - Θα σε περιμένω
TTITLE13=Γλυκερία - Πάρε με απόψε, πάρε με
TTITLE14=Μουτσάτσου Αναστασία - Βίρα τα όνειρα
TTITLE15=Κατσιμίχας Χάρης-Κατσιμίχας Πάνος - Αμοργιανό μου πέραμα
TTITLE16=Δεληβοριάς Φοίβος - Αφού δεν μ' αγαπάς
TTITLE17=Περίδης Ορφέας - Αχ να σε δω
TTITLE18=Παπαδοπούλου Πίτσα - Πού πάει η αγάπη, όταν φεύγει
EXTD=YEAR: 1999\n
EXTT0=
EXTT1=
EXTT2=
EXTT3=
EXTT4=
EXTT5=
EXTT6=
EXTT7=
EXTT8=
EXTT9=
EXTT10=
EXTT11=
EXTT12=
EXTT13=
EXTT14=
EXTT15=
EXTT16=
EXTT17=
EXTT18=
PLAYORDER=
